<svg width="466" height="659" viewBox="0 0 466 659" fill="none" xmlns="http://www.w3.org/2000/svg">
<path d="M42.1547 1.63017C25.888 5.23017 13.7547 15.0968 5.888 31.0968C0.554667 41.7635 -0.645333 52.5635 0.288 77.8968L1.088 98.0301L5.088 98.8302C7.22133 99.2302 11.3547 99.6302 14.1547 99.6302H19.3547V74.1635C19.3547 60.0302 20.0213 46.1635 20.8213 42.9635C22.688 35.4968 32.8213 24.5635 40.1547 22.1635C44.0213 20.9635 63.888 20.2968 115.355 19.7635C153.888 19.3635 185.621 19.0968 185.755 19.2301C186.021 19.3635 185.888 28.8302 185.355 40.1635L184.288 60.9635H156.821C135.088 60.9635 126.821 61.4968 117.088 63.4968C84.4213 70.2968 60.1547 94.9635 51.2213 130.297C48.688 140.43 48.5547 144.43 49.088 231.23C49.6213 330.297 49.088 324.83 58.0213 346.164C70.4213 376.43 98.288 397.364 131.355 401.23L144.688 402.83V441.23V479.63H165.088H185.355V512.564C185.355 530.83 185.488 570.83 185.755 601.63L186.021 657.63L195.355 658.03L204.688 658.297L204.821 596.03C204.955 561.63 204.955 525.497 204.688 515.63C204.555 505.764 204.821 493.497 205.355 488.564L206.288 479.63H225.488H244.688V440.164V400.564L249.755 401.63C252.421 402.164 256.555 402.697 258.688 402.697C263.488 402.697 282.288 395.764 293.088 390.03C306.821 382.697 323.888 360.964 332.821 339.63C339.355 323.764 339.621 318.83 338.955 222.564C338.288 135.63 338.155 133.364 335.355 124.297C331.355 111.897 328.421 106.164 319.888 94.5635C311.621 83.6302 300.955 74.6968 289.355 68.9635C275.088 62.0302 268.421 60.9635 235.888 60.9635H206.155L205.755 57.2302C205.488 55.2302 205.488 45.7635 205.755 36.2969L206.155 18.9635L270.421 19.3635C305.888 19.4968 336.821 20.2968 339.488 20.9635C350.155 23.8968 360.421 34.8302 364.155 47.2302C365.488 51.6302 365.888 101.23 366.155 281.23L366.288 509.63L363.355 518.297C354.021 546.297 337.621 559.497 312.421 559.63C299.221 559.63 290.955 557.23 282.021 550.564C275.088 545.497 263.555 531.764 261.688 525.897C259.688 522.13 259.765 522.13 255.688 525.897C252.188 529.13 253.188 528.13 246.688 534.13C251.688 548.13 254.021 548.964 262.155 557.63C276.288 572.564 291.621 578.964 313.355 578.83C323.888 578.83 328.288 578.164 334.288 575.764C345.355 571.497 356.421 563.497 364.155 554.297C372.288 544.697 381.355 524.697 383.888 510.964C385.355 503.497 385.488 457.364 385.088 272.43C384.555 48.8302 384.421 43.0969 381.888 36.5635C376.155 22.2969 366.021 11.4968 351.355 4.43016L342.688 0.296858L196.688 0.030195C76.288 -0.103138 49.2213 0.163504 42.1547 1.63017ZM270.555 83.3635C294.955 92.4302 311.488 111.097 317.355 135.763C318.955 142.963 319.355 158.164 319.355 229.764C319.355 311.23 319.221 315.63 316.688 325.764C312.555 341.497 306.688 352.297 296.688 362.297C281.355 377.764 265.221 383.097 237.221 382.03L225.088 381.63L224.021 418.964C223.488 439.497 222.821 456.697 222.421 457.23C221.755 458.564 176.155 458.697 170.155 457.497L166.021 456.564V420.297V384.03L148.688 383.097C137.488 382.564 128.288 381.23 122.955 379.63C99.488 372.297 81.3547 354.03 72.4213 328.964C69.488 320.43 69.3547 319.097 68.9547 256.964C68.4213 177.764 70.0213 135.897 73.888 123.63C80.8213 101.497 100.955 85.7635 128.421 80.9635C131.888 80.4302 163.488 80.0302 198.688 80.1635C261.221 80.4302 262.821 80.4302 270.555 83.3635Z" fill="black"/>
<path d="M126.821 98.4301C124.021 99.0968 117.621 101.897 112.555 104.43C105.088 108.297 102.021 111.097 96.6879 118.163C90.2879 126.697 84.5546 139.897 86.5546 141.897C87.2213 142.697 115.088 144.43 133.755 144.83C137.888 144.963 138.021 145.097 138.021 150.963V156.963H111.755H85.3546L85.6213 187.897C85.8879 204.963 86.1546 242.43 86.2879 270.963L86.6879 322.963L91.2213 332.297C97.2213 344.43 107.888 355.097 120.021 361.097L129.355 365.63L193.088 366.03C265.621 366.43 265.488 366.43 278.155 356.43C283.221 352.563 287.755 347.097 291.755 340.43C302.688 322.563 302.155 326.963 302.821 231.63C303.221 173.497 302.821 144.697 301.888 139.63C298.421 122.43 288.288 109.897 271.355 101.763L262.688 97.6301L197.355 97.3635C160.955 97.2301 129.755 97.7635 126.821 98.4301ZM197.755 147.63H223.355V176.43V205.363L250.555 204.697L277.755 204.03V233.763V263.497L250.555 262.697L223.355 261.897V289.097V316.297L200.421 315.497C187.755 314.963 175.088 314.83 172.421 315.23L167.355 316.03V289.097V262.297H138.555H109.755L110.555 258.163C110.955 255.897 111.355 242.563 111.355 228.697C111.355 214.83 111.888 203.763 112.421 204.163C113.088 204.563 125.488 204.963 140.155 204.963L166.688 205.23L166.155 175.497L165.621 145.897L168.821 146.697C170.555 147.23 183.621 147.63 197.755 147.63Z" fill="black"/>
<path d="M182.821 388.697C182.421 392.03 182.021 405.363 182.021 418.43V442.163L195.488 442.563L209.088 442.963L208.155 431.097C207.755 424.563 207.355 411.097 207.355 401.097V382.963H195.488L183.621 382.83L182.821 388.697Z" fill="black"/>
<path d="M423.488 171.497C422.021 172.43 421.755 175.364 422.288 184.697L422.955 196.697L418.155 197.497C415.488 197.897 410.288 198.297 406.421 198.297H399.621L399.755 236.564C399.888 257.764 399.488 278.43 398.955 282.564L397.888 290.164L409.621 290.564L421.355 290.964L421.755 368.297C422.021 410.83 421.488 468.164 420.688 495.764C418.955 549.764 419.488 562.83 423.221 561.764C424.421 561.364 428.155 560.83 431.621 560.697L437.888 560.297L438.555 552.297C438.955 547.897 439.621 498.43 440.021 442.297C440.421 386.164 441.088 329.097 441.488 315.364L442.288 290.564L452.555 289.63C458.155 289.23 463.355 288.564 464.155 288.297C465.088 288.03 465.488 273.897 465.488 244.164L465.355 200.297L461.355 200.03C459.221 199.764 453.355 198.964 448.555 198.297L439.888 196.83V183.897L440.021 170.964L432.688 170.564C428.688 170.43 424.555 170.83 423.488 171.497ZM447.888 222.564C448.421 225.63 448.421 237.764 447.888 249.364L446.955 270.564L442.155 269.764C439.488 269.364 433.355 268.964 428.421 268.964H419.355V243.764C419.355 214.564 417.488 217.497 436.155 217.097L446.955 216.964L447.888 222.564Z" fill="black"/>
</svg>
